Patient4_TMGait_0pt4_02_left_43_EMG.mot
version=1
nRows=13
nColumns=33
inDegrees=no
endheader
time	1LAddLong	2LGlutMax	3LGlutMed	4LIliopsoas	5LSemiMemb	6LBicFemLong	7LRecFem	8LVastMed	9LVastLat	10LGasMed	11LTibAnt	12lTibPost	13LPeroneusLong	14LSol	15LExtDigLong	16LFlexDigLong	17RAddLong	18RGlutMax	19RGlutMed	20RIliopsoas	21RSemiMemb	22RBicFemLong	23RRecFem	24RVastMed	25RVastLat	26RGasMed	27RTibAnt	28RTibPost	29RPeroneusLong	30RSol	31RExtDigLong	32RFlexDigLong
57.772	0.025635	-0.17059	0.020142	0.008698	-0.011139	-0.037231	-0.028839	-0.035858	0.075226	0.010681	-0.047302	0.088348	0.8844	0.21301	-0.11841	-0.000305	0.020752	0.26962	-0.16495	-0.17166	0.000916	0.018463	0.39917	0.007935	-0.006104	0.006104	0.001068	-0.00885	-0.035553	-0.13886	-0.002899	-0.009918
57.773	0.030975	-0.17212	-0.079041	-0.025635	0.022278	0.021667	-0.088348	-0.022736	0.039063	0.07843	-0.022736	0.088959	0.55847	0.13336	-0.049438	-0.1413	0.005341	0.20935	-0.18448	0.005341	-0.0177	-0.027313	0.38345	0.025635	-0.009918	0.012207	-0.014191	-0.00946	0.025177	-0.13443	-0.000458	-0.011444
57.774	0.009003	-0.13123	-0.08255	-0.005341	0.009308	0.037842	-0.12985	0.003967	0.068054	0.025482	-0.007782	0.087738	0.58014	0.27405	0.077972	-0.056915	-0.014648	0.20538	-0.16556	0.008698	-0.037842	-0.007782	0.37567	0.011597	-0.013428	0.004578	-0.039063	-0.007172	0.052338	-0.095825	-0.001221	-0.014343
57.775	-0.002136	-0.093994	-0.09201	0.010986	-0.050354	0.037842	-0.17303	0.007782	0.14404	-0.086365	-0.033417	0.073242	0.25116	0.28717	0.064545	-0.048065	-0.015564	0.20325	-0.10941	-0.042267	-0.046234	0.022583	0.36179	-0.001221	-0.033722	-0.006256	-0.017395	-0.004425	-0.17456	-0.032806	-0.005798	-0.019684
57.776	0.010529	-0.078735	0.085144	0.009918	-0.021667	-0.015717	-0.21484	0.003204	0.27786	-0.039063	0.005951	0.062561	-0.57022	0.058594	-0.05722	-0.062714	-0.066223	0.19318	-0.058289	-0.032959	-0.05249	0.03891	0.32288	-0.029449	-0.042572	-0.010376	0.009003	-0.002594	-0.5043	-0.021667	-0.002136	-0.021362
57.777	0.011444	-0.094452	0.050659	0.018311	0.013123	0.005341	-0.20508	0.00824	0.39673	-0.011749	0.018005	0.044098	-0.76569	-0.18219	-0.13001	0.007172	-0.08728	0.17151	-0.058136	-0.019379	-0.05722	0.033569	0.31967	0.004425	-0.024261	-0.010071	0.014343	-0.003815	-0.53436	-0.024719	-0.003662	-0.017242
57.778	0.020294	-0.093231	0.033722	0.007324	0.032654	0.058746	-0.15396	-0.027313	0.26215	0.002136	0.007172	0.04715	-0.44067	-0.27008	-0.08316	0.10162	-0.087585	0.13306	-0.027161	-0.072021	-0.038147	0.029907	0.32333	0.011902	-0.029602	0.004883	0.009613	0.000153	-0.37155	-0.005493	-0.001373	-0.021362
57.779	0.01358	-0.096436	-0.000458	0.00351	0.010223	0.13825	-0.24246	-0.001221	-0.13931	0.016022	-0.007629	0.041809	-0.10544	-0.47028	0.008392	0.006714	-0.10269	0.072174	-0.014954	-0.054474	-0.016479	0.048676	0.3392	0.020905	-0.027161	0.006866	0.010223	-0.006256	-0.16525	-0.000458	-0.00412	-0.018921
57.78	0.00885	-0.057068	0.053406	0.007324	-0.006256	0.23972	-0.31647	0.001221	-0.27512	0.013885	-0.016632	0.033875	-0.019989	-0.50949	0.02655	-0.02243	-0.098724	0.060577	-0.033569	0.03006	0.002289	0.01358	0.34302	0.063782	-0.033875	0.005341	-0.003052	-0.007477	0.13199	-0.013428	-0.000916	-0.018768
57.781	-0.009766	-0.021515	0.054016	0.001373	-0.048218	0.36682	-0.26321	0.005798	-0.14069	0.004272	-0.018463	0.027008	-0.023193	-0.29633	-0.009155	0.009918	-0.064392	0.039215	0.001526	0.058899	0.020447	-0.030212	0.31281	0.075531	-0.033417	0.001373	-0.005798	-0.007782	0.22949	0.021667	0	-0.018921
57.782	-0.036163	-0.027924	0.14862	0.019226	-0.096741	0.45837	-0.2803	0.007935	-0.034943	0.012817	0.023041	0.004272	-0.036621	0.00946	0.10437	0.006866	-0.011902	-0.002899	0.007935	0.003662	0.037079	-0.056458	0.3627	0.062714	-0.035248	0.014801	-0.001984	-0.007629	0.159	-0.002899	0	-0.019226
57.783	-0.032349	-0.060577	0.20355	0.017242	-0.20264	0.42358	-0.35248	0.010681	0.028229	0.056458	0.032349	-0.010223	0.23621	0.049438	0.079041	-0.003662	0.013123	-0.054626	-0.026398	-0.058899	0.036316	-0.077057	0.32638	0.033569	-0.065918	0.012512	0.027466	-0.008545	0.11841	0.011597	-0.000763	-0.023651
57.784	-0.000763	-0.081329	0.20981	-0.009308	-0.26398	0.30731	-0.4631	-0.007782	0.093689	0.06012	0.004272	0.001373	0.61188	0.06012	0.064087	-0.009308	0.023956	-0.13016	-0.14648	-0.068665	-0.006409	-0.001526	0.36255	0.026245	-0.049133	0.009918	0.035095	-0.00885	0.068512	0.013733	-0.00061	-0.015717
